<?xml version="1.0" standalone="no"?>
<!DOCTYPE svg PUBLIC "-//W3C//DTD SVG 20010904//EN"
 "http://www.w3.org/TR/2001/REC-SVG-20010904/DTD/svg10.dtd">
<svg version="1.0" xmlns="http://www.w3.org/2000/svg"
 width="540.000000pt" height="222.000000pt" viewBox="0 0 540.000000 222.000000"
 preserveAspectRatio="xMidYMid meet">

<g transform="translate(0.000000,222.000000) scale(0.100000,-0.100000)"
fill="#000000" stroke="none">
<path d="M0 1110 l0 -1110 2700 0 2700 0 0 1110 0 1110 -2299 0 c-1830 0
-2301 -3 -2305 -12 -5 -10 -7 -10 -12 0 -4 9 -93 12 -395 12 l-389 0 0 -1110z
m1283 1069 c22 -2 22 -2 0 -6 -18 -3 -23 -11 -23 -34 0 -21 6 -32 23 -39 22
-9 22 -9 1 -9 -23 -1 -34 16 -34 55 0 13 -6 24 -12 25 -10 0 -10 2 0 6 6 2 13
12 13 21 1 15 2 15 6 0 2 -10 14 -19 26 -19z m-483 -38 c0 -22 5 -42 13 -44 6
-3 -4 -5 -23 -5 -19 0 -27 2 -17 5 12 3 17 14 17 38 0 24 -5 35 -17 38 -14 4
-12 5 5 6 19 1 22 -4 22 -38z m122 25 c11 -16 9 -76 -2 -76 -5 0 -10 19 -10
42 0 50 -17 41 -22 -12 -3 -33 -4 -33 -8 10 -4 41 -3 46 15 46 11 0 23 -5 27
-10z m39 -32 c-2 -32 0 -35 21 -32 30 4 38 46 12 65 -16 12 -16 13 -1 13 20 0
34 -47 20 -69 -6 -9 -19 -17 -31 -19 -12 -2 -23 -12 -25 -25 -2 -12 -5 9 -6
47 0 38 2 66 6 62 4 -4 6 -23 4 -42z m150 25 c8 -16 8 -28 0 -45 -18 -41 -71
-25 -71 21 0 44 50 61 71 24z m96 1 c4 -12 3 -13 -5 -1 -17 25 -42 5 -42 -34
0 -19 -4 -35 -10 -35 -5 0 -10 19 -10 43 0 41 1 43 32 42 19 0 33 -6 35 -15z
m277 14 c19 -7 21 -55 4 -72 -34 -34 -82 13 -59 57 12 21 27 26 55 15z m100
-3 c4 -5 -2 -7 -13 -4 -30 8 -35 -16 -6 -27 32 -12 30 -44 -3 -46 -19 -1 -19
-1 -2 3 27 6 25 22 -5 33 -24 9 -32 29 -18 43 9 10 41 8 47 -2z m78 -6 c0 -5
-5 -11 -11 -13 -6 -2 -11 4 -11 13 0 9 5 15 11 13 6 -2 11 -8 11 -13z m-805
-57 c-2 -13 -4 -3 -4 22 0 25 2 35 4 23 2 -13 2 -33 0 -45z m813 -13 c0 -14
-2 -25 -4 -25 -2 0 -13 -3 -23 -7 -15 -6 -16 -4 -5 9 7 8 10 23 6 32 -4 11 -1
16 10 16 10 0 16 -9 16 -25z m-870 -125 c0 -5 -4 -10 -10 -10 -5 0 -10 5 -10
10 0 6 5 10 10 10 6 0 10 -4 10 -10z m483 -31 c22 -2 22 -2 0 -6 -18 -3 -23
-11 -23 -34 0 -21 6 -32 23 -39 22 -9 22 -9 1 -9 -23 -1 -34 16 -34 55 0 13
-6 24 -12 25 -10 0 -10 2 0 6 6 2 13 12 13 21 1 15 2 15 6 0 2 -10 14 -19 26
-19z m-483 -38 c0 -22 5 -42 13 -44 6 -3 -4 -5 -23 -5 -19 0 -27 2 -17 5 12 3
17 14 17 38 0 24 -5 35 -17 38 -14 4 -12 5 5 6 19 1 22 -4 22 -38z m122 25
c11 -16 9 -76 -2 -76 -5 0 -10 19 -10 42 0 50 -17 41 -22 -12 -3 -33 -4 -33
-8 10 -4 41 -3 46 15 46 11 0 23 -5 27 -10z m39 -32 c-2 -32 0 -35 21 -32 30
4 38 46 12 65 -16 12 -16 13 -1 13 20 0 34 -47 20 -69 -6 -9 -19 -17 -31 -19
-12 -2 -23 -12 -25 -25 -2 -12 -5 9 -6 47 0 38 2 66 6 62 4 -4 6 -23 4 -42z
m150 25 c8 -16 8 -28 0 -45 -18 -41 -71 -25 -71 21 0 44 50 61 71 24z m96 1
c4 -12 3 -13 -5 -1 -17 25 -42 5 -42 -34 0 -19 -4 -35 -10 -35 -5 0 -10 19
-10 43 0 41 1 43 32 42 19 0 33 -6 35 -15z m555 5 c0 -5 -5 -11 -11 -13 -6 -2
-11 4 -11 13 0 9 5 15 11 13 6 -2 11 -8 11 -13z m-905 -57 c-2 -13 -4 -3 -4
22 0 25 2 35 4 23 2 -13 2 -33 0 -45z m913 -6 c0 -22 -19 -42 -39 -42 -14 1
-14 2 1 10 10 6 14 18 11 30 -4 14 0 20 11 20 9 0 16 -8 16 -18z m-970 -132
c0 -5 -4 -10 -10 -10 -5 0 -10 5 -10 10 0 6 5 10 10 10 6 0 10 -4 10 -10z
m770 0 c0 -5 -4 -10 -10 -10 -5 0 -10 5 -10 10 0 6 5 10 10 10 6 0 10 -4 10
-10z m-287 -31 c22 -2 22 -2 0 -6 -18 -3 -23 -11 -23 -34 0 -21 6 -32 23 -39
22 -9 22 -9 1 -9 -23 -1 -34 16 -34 55 0 13 -6 24 -12 25 -10 0 -10 2 0 6 6 2
13 12 13 21 1 15 2 15 6 0 2 -10 14 -19 26 -19z m177 16 c0 -8 10 -16 23 -16
l22 -2 -22 -4 c-19 -4 -23 -11 -23 -39 0 -28 4 -34 23 -35 19 -1 20 -2 3 -6
-23 -6 -46 21 -46 54 0 13 -6 23 -12 24 -10 0 -10 2 0 6 6 2 12 11 12 19 0 8
5 14 10 14 6 0 10 -7 10 -15z m-660 -54 c0 -22 5 -42 13 -44 6 -3 -4 -5 -23
-5 -19 0 -27 2 -17 5 12 3 17 14 17 38 0 24 -5 35 -17 38 -14 4 -12 5 5 6 19
1 22 -4 22 -38z m122 25 c11 -16 9 -76 -2 -76 -5 0 -10 19 -10 42 0 50 -17 41
-22 -12 -3 -33 -4 -33 -8 10 -4 41 -3 46 15 46 11 0 23 -5 27 -10z m39 -32
c-2 -32 0 -35 21 -32 30 4 38 46 12 65 -16 12 -16 13 -1 13 20 0 34 -47 20
-69 -6 -9 -19 -17 -31 -19 -12 -2 -23 -12 -25 -25 -2 -12 -5 9 -6 47 0 38 2
66 6 62 4 -4 6 -23 4 -42z m150 25 c8 -16 8 -28 0 -45 -18 -41 -71 -25 -71 21
0 44 50 61 71 24z m96 1 c4 -12 3 -13 -5 -1 -17 25 -42 5 -42 -34 0 -19 -4
-35 -10 -35 -5 0 -10 19 -10 43 0 41 1 43 32 42 19 0 33 -6 35 -15z m363 -19
c0 -22 5 -42 13 -44 6 -3 -4 -5 -23 -5 -19 0 -29 2 -22 5 6 2 12 20 12 38 0
18 -6 36 -12 38 -7 3 -3 6 10 6 19 1 22 -4 22 -38z m128 -8 c2 -26 -1 -43 -7
-43 -6 0 -11 19 -11 42 0 50 -16 41 -23 -12 -4 -33 -4 -32 -5 8 -2 51 -22 48
-22 -4 0 -19 -4 -34 -10 -34 -5 0 -10 20 -10 44 l0 44 43 -2 42 -1 3 -42z m80
35 c22 -22 13 -38 -19 -38 -39 0 -34 -22 7 -31 l29 -7 -33 -1 c-25 -1 -35 4
-41 22 -17 47 25 87 57 55z m82 -3 c0 -8 -4 -15 -9 -15 -13 0 -22 16 -14 24
11 11 23 6 23 -9z m-1003 -57 c-2 -13 -4 -3 -4 22 0 25 2 35 4 23 2 -13 2 -33
0 -45z m1008 2 c9 -15 -14 -50 -33 -50 -14 0 -14 2 -3 9 8 5 11 16 8 24 -9 24
15 38 28 17z m-199 -392 c-9 -12 -16 -36 -16 -53 0 -17 7 -41 16 -53 21 -30
13 -38 -12 -11 -12 14 -19 36 -19 64 0 28 7 50 19 64 25 27 33 19 12 -11z m71
0 c-3 -7 -5 -2 -5 12 0 14 2 19 5 13 2 -7 2 -19 0 -25z m43 11 c0 -11 -4 -17
-10 -14 -5 3 -10 13 -10 21 0 8 5 14 10 14 6 0 10 -9 10 -21z m745 -23 c20 5
25 1 30 -19 4 -14 5 -36 2 -48 -3 -17 -5 -12 -6 13 0 20 -6 40 -11 43 -17 11
-39 -14 -43 -48 -2 -18 -4 0 -4 38 0 39 2 58 4 42 4 -23 8 -26 28 -21z m1051
1 c34 13 60 -47 32 -75 -7 -7 -22 -12 -35 -12 -22 0 -23 3 -22 68 1 37 4 55 6
40 3 -19 9 -25 19 -21z m574 23 c0 -11 -4 -20 -10 -20 -5 0 -10 9 -10 20 0 11
5 20 10 20 6 0 10 -9 10 -20z m33 0 c-3 -11 -7 -20 -9 -20 -2 0 -4 9 -4 20 0
11 4 20 9 20 5 0 7 -9 4 -20z m97 -64 c0 -19 -9 -45 -21 -60 -25 -32 -38 -27
-15 6 20 28 21 78 1 104 -24 32 -16 41 10 11 16 -18 25 -40 25 -61z m-2910 59
c0 -8 10 -16 23 -16 l22 -2 -22 -4 c-19 -4 -23 -11 -23 -38 0 -27 5 -35 23
-38 15 -4 12 -5 -8 -4 -27 2 -30 6 -33 40 -2 26 -8 37 -20 38 -15 1 -15 2 1 6
9 2 17 11 17 19 0 8 5 14 10 14 6 0 10 -7 10 -15z m593 -16 c22 -2 22 -2 0 -6
-18 -3 -23 -11 -23 -34 0 -21 6 -32 23 -39 22 -10 22 -10 -3 -7 -21 2 -25 8
-28 40 -2 26 -8 37 -20 38 -15 1 -15 2 1 6 9 2 18 12 18 21 1 15 2 15 6 0 2
-10 14 -19 26 -19z m290 0 c22 -2 22 -2 0 -6 -19 -4 -23 -11 -23 -38 0 -27 5
-35 23 -38 19 -5 19 -5 -3 -4 -21 2 -25 8 -28 40 -2 26 -8 37 -20 38 -15 1
-15 2 1 6 9 2 18 12 18 21 1 15 2 15 6 0 2 -10 14 -19 26 -19z m1150 0 c22 -2
22 -2 0 -6 -18 -3 -23 -11 -23 -34 0 -21 6 -32 23 -39 22 -10 22 -10 -3 -7
-21 2 -26 8 -28 37 -2 19 -9 38 -15 42 -9 6 -9 8 1 8 6 0 13 8 13 18 1 16 2
16 6 0 2 -10 14 -19 26 -19z m-2583 -13 c28 -35 -11 -93 -47 -70 -36 22 -23
84 17 84 10 0 23 -7 30 -14z m73 7 c-30 -6 -29 -21 2 -33 14 -5 25 -16 25 -25
0 -18 -47 -32 -61 -18 -7 7 -2 9 15 6 33 -7 33 10 0 32 -20 13 -23 19 -13 31
6 8 21 13 33 13 20 -2 20 -2 -1 -6z m211 -2 c4 -5 -3 -7 -14 -4 -28 7 -25 -12
6 -32 20 -13 23 -19 13 -31 -13 -15 -59 -19 -59 -5 0 5 8 7 19 4 30 -8 35 16
7 27 -25 9 -34 29 -19 43 9 10 41 8 47 -2z m60 -31 l10 -33 11 33 c6 19 17 36
23 38 8 2 5 -16 -9 -50 -25 -63 -36 -78 -58 -78 -14 1 -14 2 2 11 21 12 22 35
1 84 -11 28 -12 36 -2 33 7 -3 17 -20 22 -38z m130 31 c4 -5 -3 -7 -14 -4 -28
7 -25 -12 6 -32 20 -13 23 -19 13 -31 -13 -15 -59 -19 -59 -5 0 5 8 7 19 4 30
-8 35 16 7 27 -25 9 -34 29 -19 43 9 10 41 8 47 -2z m204 -18 c3 -20 -1 -23
-28 -23 -40 0 -36 -22 6 -31 l29 -7 -33 -1 c-40 -1 -61 33 -42 68 16 30 64 26
68 -6z m42 -24 c0 -21 -4 -39 -10 -39 -5 0 -10 21 -10 46 0 27 4 43 10 39 6
-3 10 -24 10 -46z m62 37 c11 -17 10 -76 -2 -76 -5 0 -10 18 -10 41 0 24 -4
38 -10 34 -5 -3 -10 -22 -10 -41 0 -49 -17 -42 -21 10 -4 41 -2 44 21 44 14 0
28 -5 32 -12z m251 7 c-30 -6 -29 -21 3 -33 31 -12 29 -44 -4 -46 -19 -1 -19
-1 -2 3 27 6 25 22 -5 33 -39 15 -32 51 9 49 19 -2 19 -2 -1 -6z m215 -38 c3
-38 1 -41 -24 -43 -15 -1 -31 3 -35 10 -10 16 9 38 32 38 11 0 19 7 19 16 0
12 -7 15 -25 12 -13 -3 -22 -1 -19 4 3 5 16 8 27 6 18 -2 23 -11 25 -43z m110
25 c5 -13 3 -13 -11 -1 -25 20 -45 6 -50 -36 -4 -37 -4 -36 -5 8 -2 46 -2 46
30 45 18 -1 33 -7 36 -16z m252 7 c-14 -7 -25 -21 -25 -32 0 -11 11 -25 25
-33 l25 -13 -24 3 c-34 4 -48 30 -33 62 7 17 19 26 34 26 23 0 23 0 -2 -13z
m228 -7 c5 -13 3 -13 -11 -1 -25 20 -45 6 -50 -36 -4 -37 -4 -36 -5 8 -2 46
-2 46 30 45 18 -1 33 -7 36 -16z m91 -2 c4 -12 6 -30 3 -40 -5 -19 -44 -34
-61 -23 -15 9 -14 72 2 78 27 12 48 6 56 -15z m31 -33 l-8 -40 -1 50 c-1 29 3
45 8 40 5 -6 6 -28 1 -50z m68 6 l-1 -46 -4 43 c-5 50 -23 47 -23 -4 0 -49
-17 -42 -21 9 -4 42 -3 44 24 44 26 0 27 -2 25 -46z m92 30 c15 -29 13 -31
-25 -31 -26 0 -33 -4 -29 -14 3 -8 18 -17 32 -19 26 -5 25 -5 -2 -3 -38 1 -54
26 -38 60 14 31 47 34 62 7z m145 -21 c4 -17 10 -30 15 -30 5 0 11 13 15 30 6
27 25 53 25 33 -1 -21 -57 -118 -70 -121 -9 -3 -8 1 4 11 18 13 19 18 7 53 -7
22 -15 45 -18 53 -3 8 -1 11 5 7 6 -3 13 -20 17 -36z m144 18 c4 -12 6 -30 3
-40 -5 -19 -44 -34 -61 -23 -15 9 -14 72 2 78 27 12 48 6 56 -15z m51 -52 c14
-15 38 12 43 47 3 25 4 22 5 -13 2 -45 2 -46 -30 -45 -32 0 -33 1 -34 45 -1
35 0 37 3 10 2 -19 8 -39 13 -44z m190 0 c14 -15 38 12 43 47 3 25 4 22 5 -13
2 -45 2 -46 -30 -45 -32 0 -33 1 -34 45 -1 35 0 37 3 10 2 -19 8 -39 13 -44z
m240 55 c15 -29 13 -31 -25 -31 -26 0 -33 -4 -29 -14 3 -8 18 -17 32 -19 26
-5 25 -5 -2 -3 -38 1 -54 26 -38 60 14 31 47 34 62 7z m170 10 c-19 -5 -25
-13 -25 -36 0 -23 6 -31 25 -36 14 -4 18 -7 8 -8 -32 -2 -48 11 -48 38 0 33
17 51 45 50 17 -1 16 -2 -5 -8z m119 -13 c4 -12 6 -30 3 -40 -5 -19 -44 -34
-61 -23 -15 9 -14 72 2 78 27 12 48 6 56 -15z m41 -29 c0 -21 -4 -39 -10 -39
-5 0 -10 21 -10 46 0 27 4 43 10 39 6 -3 10 -24 10 -46z m62 37 c11 -16 9 -76
-2 -76 -5 0 -10 19 -10 42 0 50 -17 41 -22 -12 -3 -33 -4 -33 -8 10 -4 41 -3
46 15 46 11 0 23 -5 27 -10z m-3102 -61 c0 -8 -7 -15 -15 -15 -8 0 -15 7 -15
15 0 8 7 15 15 15 8 0 15 -7 15 -15z m2782 0 c0 -5 -5 -11 -11 -13 -6 -2 -11
4 -11 13 0 9 5 15 11 13 6 -2 11 -8 11 -13z m-2116 -157 c-9 -12 -16 -36 -16
-53 0 -17 7 -41 16 -53 21 -30 13 -38 -12 -11 -12 14 -19 36 -19 64 0 28 7 50
19 64 25 27 33 19 12 -11z m71 0 c-3 -7 -5 -2 -5 12 0 14 2 19 5 13 2 -7 2
-19 0 -25z m43 11 c0 -11 -4 -17 -10 -14 -5 3 -10 13 -10 21 0 8 5 14 10 14 6
0 10 -9 10 -21z m745 -23 c20 5 25 1 30 -19 4 -14 5 -36 2 -48 -3 -17 -5 -12
-6 13 0 20 -6 40 -11 43 -17 11 -39 -14 -43 -48 -2 -18 -4 0 -4 38 0 39 2 58
4 42 4 -23 8 -26 28 -21z m870 -1 c17 0 20 -7 21 -40 l1 -40 -4 38 c-6 53 -36
48 -44 -8 -5 -31 -6 -24 -6 30 -1 39 2 59 6 45 4 -16 13 -25 26 -25z m181 2
c34 13 60 -47 32 -75 -7 -7 -22 -12 -35 -12 -22 0 -23 3 -22 68 1 37 4 55 6
40 3 -19 9 -25 19 -21z m471 11 c-3 -7 -5 -2 -5 12 0 14 2 19 5 13 2 -7 2 -19
0 -25z m43 11 c0 -11 -4 -17 -10 -14 -5 3 -10 13 -10 21 0 8 5 14 10 14 6 0
10 -9 10 -21z m74 -4 c9 -13 16 -38 16 -55 0 -35 -25 -90 -41 -90 -7 0 -5 10
5 25 9 13 16 40 16 60 0 20 -7 47 -16 60 -9 14 -12 25 -6 25 5 0 17 -11 26
-25z m-2794 0 c0 -8 10 -16 23 -16 l22 -2 -22 -4 c-19 -4 -23 -11 -23 -38 0
-27 5 -35 23 -38 15 -4 12 -5 -8 -4 -27 2 -30 6 -33 40 -2 26 -8 37 -20 38
-15 1 -15 2 1 6 9 2 17 11 17 19 0 8 5 14 10 14 6 0 10 -7 10 -15z m593 -16
c22 -2 22 -2 0 -6 -18 -3 -23 -11 -23 -34 0 -21 6 -32 23 -39 22 -10 22 -10
-3 -7 -21 2 -25 8 -28 40 -2 26 -8 37 -20 38 -15 1 -15 2 1 6 9 2 18 12 18 21
1 15 2 15 6 0 2 -10 14 -19 26 -19z m290 0 c22 -2 22 -2 0 -6 -19 -4 -23 -11
-23 -38 0 -27 5 -35 23 -38 19 -5 19 -5 -3 -4 -21 2 -25 8 -28 40 -2 26 -8 37
-20 38 -15 1 -15 2 1 6 9 2 18 12 18 21 1 15 2 15 6 0 2 -10 14 -19 26 -19z
m1060 0 c22 -2 22 -2 0 -6 -19 -4 -23 -11 -23 -38 0 -27 5 -35 23 -38 19 -5
19 -5 -3 -4 -21 2 -25 8 -28 40 -2 26 -8 37 -20 38 -15 1 -15 2 1 6 9 2 18 12
18 21 1 15 2 15 6 0 2 -10 14 -19 26 -19z m-2493 -13 c28 -35 -11 -93 -47 -70
-36 22 -23 84 17 84 10 0 23 -7 30 -14z m73 7 c-30 -6 -29 -21 2 -33 14 -5 25
-16 25 -25 0 -18 -47 -32 -61 -18 -7 7 -2 9 15 6 33 -7 33 10 0 32 -20 13 -23
19 -13 31 6 8 21 13 33 13 20 -2 20 -2 -1 -6z m211 -2 c4 -5 -3 -7 -14 -4 -28
7 -25 -12 6 -32 20 -13 23 -19 13 -31 -13 -15 -59 -19 -59 -5 0 5 8 7 19 4 30
-8 35 16 7 27 -25 9 -34 29 -19 43 9 10 41 8 47 -2z m60 -31 l10 -33 11 33 c6
19 17 36 23 38 8 2 5 -16 -9 -50 -25 -63 -36 -78 -58 -78 -14 1 -14 2 2 11 21
12 22 35 1 84 -11 28 -12 36 -2 33 7 -3 17 -20 22 -38z m130 31 c4 -5 -3 -7
-14 -4 -28 7 -25 -12 6 -32 20 -13 23 -19 13 -31 -13 -15 -59 -19 -59 -5 0 5
8 7 19 4 30 -8 35 16 7 27 -25 9 -34 29 -19 43 9 10 41 8 47 -2z m204 -18 c3
-20 -1 -23 -28 -23 -40 0 -36 -22 6 -31 l29 -7 -33 -1 c-40 -1 -61 33 -42 68
16 30 64 26 68 -6z m42 -24 c0 -21 -4 -39 -10 -39 -5 0 -10 21 -10 46 0 27 4
43 10 39 6 -3 10 -24 10 -46z m62 37 c11 -17 10 -76 -2 -76 -5 0 -10 18 -10
41 0 24 -4 38 -10 34 -5 -3 -10 -22 -10 -41 0 -49 -17 -42 -21 10 -4 41 -2 44
21 44 14 0 28 -5 32 -12z m251 7 c-30 -6 -29 -21 3 -33 31 -12 29 -44 -4 -46
-19 -1 -19 -1 -2 3 27 6 25 22 -5 33 -39 15 -32 51 9 49 19 -2 19 -2 -1 -6z
m215 -38 c3 -38 1 -41 -24 -43 -15 -1 -31 3 -35 10 -10 16 9 38 32 38 11 0 19
7 19 16 0 12 -7 15 -25 12 -13 -3 -22 -1 -19 4 3 5 16 8 27 6 18 -2 23 -11 25
-43z m110 25 c5 -13 3 -13 -11 -1 -25 20 -45 6 -50 -36 -4 -37 -4 -36 -5 8 -2
46 -2 46 30 45 18 -1 33 -7 36 -16z m252 7 c-14 -7 -25 -21 -25 -32 0 -11 11
-25 25 -33 l25 -13 -24 3 c-34 4 -48 30 -33 62 7 17 19 26 34 26 23 0 23 0 -2
-13z m228 -7 c5 -13 3 -13 -11 -1 -25 20 -45 6 -50 -36 -4 -37 -4 -36 -5 8 -2
46 -2 46 30 45 18 -1 33 -7 36 -16z m91 -2 c4 -12 6 -30 3 -40 -5 -19 -44 -34
-61 -23 -15 9 -14 72 2 78 27 12 48 6 56 -15z m31 -33 l-8 -40 -1 50 c-1 29 3
45 8 40 5 -6 6 -28 1 -50z m68 6 l-1 -46 -4 43 c-5 50 -23 47 -23 -4 0 -49
-17 -42 -21 9 -4 42 -3 44 24 44 26 0 27 -2 25 -46z m92 30 c15 -29 13 -31
-25 -31 -26 0 -33 -4 -29 -14 3 -8 18 -17 32 -19 26 -5 25 -5 -2 -3 -38 1 -54
26 -38 60 14 31 47 34 62 7z m191 -8 c-5 -18 -15 -29 -29 -31 -31 -5 -27 -20
5 -24 37 -4 43 -35 9 -44 -47 -11 -56 0 -50 58 7 66 9 68 44 68 26 0 28 -2 21
-27z m69 -12 c0 -29 5 -41 18 -44 9 -3 -1 -5 -23 -5 -22 0 -32 2 -22 5 20 5
24 68 5 76 -8 3 -6 6 5 6 13 1 17 -7 17 -38z m270 -35 c14 -15 38 12 43 47 3
25 4 22 5 -13 2 -45 2 -46 -30 -45 -32 0 -33 1 -34 45 -1 35 0 37 3 10 2 -19
8 -39 13 -44z m314 64 c-12 -5 -25 -13 -29 -19 -11 -19 5 -51 28 -52 18 -1 19
-2 4 -6 -24 -6 -47 14 -47 41 0 28 18 46 45 45 19 0 19 0 -1 -9z m116 -4 c28
-35 -11 -93 -47 -70 -36 22 -23 84 17 84 10 0 23 -7 30 -14z m37 -53 c-2 -16
-4 -5 -4 22 0 28 2 40 4 28 2 -13 2 -35 0 -50z m71 19 c2 -25 -1 -42 -7 -42
-6 0 -11 19 -11 42 0 50 -17 41 -22 -12 -3 -33 -4 -32 -8 12 -5 44 -4 46 20
45 22 -2 25 -8 28 -45z m-3008 -27 c0 -8 -7 -15 -15 -15 -8 0 -15 7 -15 15 0
8 7 15 15 15 8 0 15 -7 15 -15z m2690 0 c0 -8 -4 -15 -10 -15 -5 0 -10 7 -10
15 0 8 5 15 10 15 6 0 10 -7 10 -15z m-1890 -200 l0 -115 -50 0 -50 0 0 48
c-1 37 -3 43 -11 30 -5 -10 -19 -18 -29 -18 -13 0 -20 -7 -20 -20 0 -11 -4
-20 -10 -20 -6 0 -10 28 -10 65 l0 65 30 0 c17 0 33 -7 39 -17 8 -14 10 -4 11
40 l0 57 50 0 50 0 0 -115z m190 0 l0 -115 -50 0 -50 0 0 46 c0 41 -1 44 -16
30 -8 -9 -27 -15 -42 -15 l-27 2 27 4 c46 7 48 53 2 53 -19 0 -24 5 -24 25 0
22 4 25 38 24 30 -2 32 -3 10 -6 -32 -5 -39 -33 -8 -33 10 0 24 -8 29 -17 8
-14 10 -1 11 50 l0 67 50 0 50 0 0 -115z m-1100 65 c0 -5 -4 -10 -10 -10 -5 0
-10 5 -10 10 0 6 5 10 10 10 6 0 10 -4 10 -10z m490 -49 c0 -48 3 -60 18 -64
9 -3 -3 -5 -28 -5 -25 0 -37 2 -27 5 13 4 17 15 17 58 0 33 -5 55 -12 58 -7 3
-3 6 10 6 20 1 22 -3 22 -58z m-577 18 c22 -2 22 -2 0 -6 -35 -7 -30 -61 7
-76 9 -4 4 -6 -10 -4 -21 2 -25 8 -28 40 -2 26 -8 37 -20 38 -15 1 -15 2 1 6
9 2 18 12 18 21 1 15 2 15 6 0 2 -10 14 -19 26 -19z m-395 13 c-1 -4 -12 -29
-23 -55 -11 -26 -26 -47 -33 -47 -8 0 -4 16 13 49 l25 50 -33 4 c-27 3 -25 4
11 5 24 1 42 -2 40 -6z m482 -51 c0 -29 5 -41 18 -44 9 -3 -1 -5 -23 -5 -22 0
-32 2 -22 5 12 3 17 14 17 38 0 24 -5 35 -17 38 -14 4 -12 5 5 6 19 1 22 -4
22 -38z m132 24 c11 -15 9 -75 -2 -75 -5 0 -10 19 -10 42 0 50 -16 41 -23 -12
-4 -33 -4 -33 -5 8 -2 53 -22 56 -22 2 0 -22 -4 -40 -10 -40 -5 0 -10 19 -10
43 l0 43 38 0 c20 0 40 -5 44 -11z m88 -4 c15 -29 13 -31 -25 -31 -26 0 -33
-3 -29 -15 4 -8 18 -16 33 -16 24 -2 24 -2 3 -6 -29 -6 -52 13 -52 41 0 44 50
63 70 27z m190 10 c0 -5 -9 -7 -20 -4 -29 8 -25 -16 6 -27 16 -7 24 -16 22
-28 -4 -19 -45 -29 -60 -14 -6 6 0 8 16 5 34 -7 34 14 1 27 -24 9 -32 29 -18
43 10 10 53 8 53 -2z m198 -18 c3 -20 -1 -23 -28 -23 -40 0 -36 -22 6 -31 l29
-7 -33 -1 c-40 -1 -61 33 -42 68 16 30 64 26 68 -6z m90 15 c22 -22 13 -38
-19 -38 -39 0 -34 -22 7 -31 l29 -7 -30 -1 c-36 -1 -55 14 -55 44 0 25 18 45
40 45 9 0 21 -5 28 -12z m-398 -63 c0 -8 -7 -15 -15 -15 -8 0 -15 7 -15 15 0
8 7 15 15 15 8 0 15 -7 15 -15z"/>
<path d="M1054 2156 c-10 -26 1 -51 22 -54 24 -3 38 20 29 49 -7 22 -43 25
-51 5z"/>
<path d="M1444 2156 c-10 -26 0 -51 21 -51 16 0 20 7 20 30 0 33 -30 49 -41
21z"/>
<path d="M1054 1916 c-10 -26 1 -51 22 -54 24 -3 38 20 29 49 -7 22 -43 25
-51 5z"/>
<path d="M1054 1676 c-10 -26 1 -51 22 -54 24 -3 38 20 29 49 -7 22 -43 25
-51 5z"/>
<path d="M1737 1684 c-14 -14 -6 -24 19 -24 16 0 24 5 22 13 -5 14 -31 21 -41
11z"/>
<path d="M3567 1213 c-4 -3 -7 -19 -7 -35 0 -21 5 -28 19 -28 22 0 34 25 26
51 -6 19 -26 25 -38 12z"/>
<path d="M765 1201 c-8 -26 4 -51 25 -51 10 0 21 7 24 16 10 25 -3 54 -24 54
-10 0 -21 -8 -25 -19z"/>
<path d="M1446 1205 c-4 -11 1 -15 19 -15 18 0 23 4 19 15 -4 8 -12 15 -19 15
-7 0 -15 -7 -19 -15z"/>
<path d="M2020 1164 c0 -9 7 -14 17 -12 25 5 28 28 4 28 -12 0 -21 -6 -21 -16z"/>
<path d="M2694 1206 c-10 -26 0 -51 21 -51 16 0 20 7 20 30 0 33 -30 49 -41
21z"/>
<path d="M2886 1205 c-4 -11 1 -15 19 -15 16 0 25 6 25 15 0 8 -9 15 -19 15
-10 0 -21 -7 -25 -15z"/>
<path d="M3174 1206 c-10 -26 0 -51 21 -51 16 0 20 7 20 30 0 33 -30 49 -41
21z"/>
<path d="M3656 1205 c-4 -11 1 -15 19 -15 16 0 25 6 25 15 0 8 -9 15 -19 15
-10 0 -21 -7 -25 -15z"/>
<path d="M3944 1206 c-10 -26 0 -51 21 -51 16 0 20 7 20 30 0 33 -30 49 -41
21z"/>
<path d="M3567 973 c-4 -3 -7 -19 -7 -35 0 -21 5 -28 19 -28 22 0 34 25 26 51
-6 19 -26 25 -38 12z"/>
<path d="M765 961 c-8 -26 4 -51 25 -51 10 0 21 7 24 16 10 25 -3 54 -24 54
-10 0 -21 -8 -25 -19z"/>
<path d="M1446 965 c-4 -11 1 -15 19 -15 18 0 23 4 19 15 -4 8 -12 15 -19 15
-7 0 -15 -7 -19 -15z"/>
<path d="M2020 924 c0 -9 7 -14 17 -12 25 5 28 28 4 28 -12 0 -21 -6 -21 -16z"/>
<path d="M2694 966 c-10 -26 0 -51 21 -51 16 0 20 7 20 30 0 33 -30 49 -41 21z"/>
<path d="M2886 965 c-4 -11 1 -15 19 -15 16 0 25 6 25 15 0 8 -9 15 -19 15
-10 0 -21 -7 -25 -15z"/>
<path d="M3080 960 c0 -15 5 -20 18 -18 9 2 17 10 17 18 0 8 -8 16 -17 18 -13
2 -18 -3 -18 -18z"/>
<path d="M3075 890 c-8 -13 20 -24 40 -16 8 3 15 10 15 16 0 13 -47 13 -55 0z"/>
<path d="M3845 961 c-8 -26 4 -51 25 -51 10 0 21 7 24 16 10 25 -3 54 -24 54
-10 0 -21 -8 -25 -19z"/>
<path d="M1710 715 l0 -105 40 0 40 0 0 105 0 105 -40 0 -40 0 0 -105z m70 68
c0 -5 -7 -17 -15 -27 -8 -11 -15 -34 -15 -51 0 -17 7 -40 15 -51 16 -21 19
-34 7 -34 -14 0 -42 57 -42 85 0 28 28 85 42 85 4 0 8 -3 8 -7z"/>
<path d="M1647 733 c-4 -3 -7 -19 -7 -35 0 -35 27 -38 36 -4 8 35 -10 59 -29
39z"/>
<path d="M1900 715 l0 -105 40 0 40 0 0 105 0 105 -40 0 -40 0 0 -105z m70 -9
c0 -19 -9 -45 -21 -60 -25 -32 -38 -27 -15 6 20 28 21 78 1 104 -24 32 -16 41
10 11 16 -18 25 -40 25 -61z"/>
<path d="M1057 725 c-5 -11 0 -15 19 -15 16 0 24 5 22 13 -7 18 -35 20 -41 2z"/>
<path d="M1446 725 c-4 -11 1 -15 19 -15 18 0 23 4 19 15 -4 8 -12 15 -19 15
-7 0 -15 -7 -19 -15z"/>
<path d="M1547 734 c-13 -13 -7 -24 14 -24 11 0 19 5 17 12 -5 14 -22 21 -31
12z"/>
</g>
</svg>
